<svg data-v-423bf9ae="" xmlns="http://www.w3.org/2000/svg" viewBox="0 0 304 107" class="iconLeftSlogan"><!----><!----><!----><g data-v-423bf9ae="" id="fcf16797-d888-4d03-86e2-32e48af53b86" fill="white" transform="matrix(6.19195073253312,0,0,6.19195073253312,123.52067411477496,-47.678019936321306)"><path d="M3.58 17.37L3.58 17.37Q1.92 17.37 1.09 16.30L1.09 16.30L1.09 16.30Q0.27 15.22 0.27 13.37L0.27 13.37L0.27 13.37Q0.27 11.84 0.92 10.54L0.92 10.54L0.92 10.54Q1.58 9.24 2.76 8.47L2.76 8.47L2.76 8.47Q3.93 7.70 5.40 7.70L5.40 7.70L5.40 7.70Q6.83 7.70 7.69 8.67L7.69 8.67L7.69 8.67Q8.55 9.65 8.55 11.58L8.55 11.58L8.55 11.58Q8.55 12.95 7.92 14.30L7.92 14.30L7.92 14.30Q7.28 15.65 6.15 16.51L6.15 16.51L6.15 16.51Q5.01 17.37 3.58 17.37L3.58 17.37ZM3.78 16.11L3.78 16.11Q4.47 16.11 5.12 15.34L5.12 15.34L5.12 15.34Q5.78 14.57 6.20 13.37L6.20 13.37L6.20 13.37Q6.61 12.17 6.61 10.92L6.61 10.92L6.61 10.92Q6.61 9.97 6.29 9.54L6.29 9.54L6.29 9.54Q5.98 9.11 5.18 9.11L5.18 9.11L5.18 9.11Q4.30 9.11 3.61 9.88L3.61 9.88L3.61 9.88Q2.93 10.65 2.55 11.80L2.55 11.80L2.55 11.80Q2.17 12.95 2.17 14.03L2.17 14.03L2.17 14.03Q2.17 14.66 2.40 15.13L2.40 15.13L2.40 15.13Q2.63 15.61 3.00 15.86L3.00 15.86L3.00 15.86Q3.37 16.11 3.78 16.11L3.78 16.11ZM19.50 7.73L19.50 7.73Q20.02 7.83 20.18 7.89L20.18 7.89L20.18 7.89Q20.34 7.95 20.40 8.08L20.40 8.08L20.40 8.08Q20.10 9.21 19.63 11.29L19.63 11.29L19.63 11.29Q19.15 13.37 18.98 14.08L18.98 14.08L18.98 14.08Q18.68 15.51 18.41 16.62L18.41 16.62L18.41 16.62Q18.21 17.39 17.79 17.39L17.79 17.39L17.79 17.39Q16.51 17.39 16.51 16.79L16.51 16.79L16.51 16.79Q16.51 17.02 17.23 13.62L17.23 13.62L17.49 12.42L14.70 16.73L14.70 16.73Q14.48 17.01 14.04 17.01L14.04 17.01L14.04 17.01Q13.68 17.01 13.36 16.83L13.36 16.83L13.36 16.83Q13.05 16.65 13.09 16.46L13.09 16.46L12.32 11.94L11.17 16.58L11.17 16.58Q11.07 16.98 10.87 17.12L10.87 17.12L10.87 17.12Q10.67 17.26 10.11 17.26L10.11 17.26L10.11 17.26Q9.67 17.26 9.47 17.12L9.47 17.12L9.47 17.12Q9.27 16.97 9.27 16.62L9.27 16.62L9.27 16.62Q9.27 16.46 9.31 16.32L9.31 16.32L11.23 8.75L11.23 8.75Q11.38 8.13 11.56 7.93L11.56 7.93L11.56 7.93Q11.73 7.73 12.19 7.73L12.19 7.73L12.19 7.73Q12.57 7.73 12.87 7.81L12.87 7.81L12.87 7.81Q13.16 7.90 13.17 8.06L13.17 8.06L13.17 8.09L14.29 15.05L14.29 15.05Q14.90 14.08 16.28 11.86L16.28 11.86L16.28 11.86Q17.65 9.63 18.44 8.39L18.44 8.39L18.44 8.39Q18.58 8.04 18.75 7.93L18.75 7.93L18.75 7.93Q18.93 7.83 19.16 7.78L19.16 7.78L19.16 7.78Q19.39 7.74 19.50 7.73L19.50 7.73ZM16.51 16.79L16.51 16.79ZM28.46 14.64L28.46 14.64Q28.25 15.27 27.63 15.91L27.63 15.91L27.63 15.91Q27.01 16.55 26.06 16.96L26.06 16.96L26.06 16.96Q25.12 17.37 24.00 17.37L24.00 17.37L24.00 17.37Q22.29 17.37 21.49 16.54L21.49 16.54L21.49 16.54Q20.69 15.71 20.69 14.41L20.69 14.41L20.69 14.41Q20.69 12.56 21.52 11.05L21.52 11.05L21.52 11.05Q22.34 9.55 23.74 8.69L23.74 8.69L23.74 8.69Q25.14 7.83 26.77 7.83L26.77 7.83L26.77 7.83Q27.41 7.83 27.94 8.12L27.94 8.12L27.94 8.12Q28.48 8.41 28.78 8.97L28.78 8.97L28.78 8.97Q29.09 9.52 29.09 10.26L29.09 10.26L29.09 10.26Q29.09 10.68 28.78 10.98L28.78 10.98L28.78 10.98Q28.46 11.27 27.93 11.27L27.93 11.27L27.93 11.27Q27.51 11.27 27.36 11.05L27.36 11.05L27.36 11.05Q27.22 10.82 27.22 10.47L27.22 10.47L27.23 10.02L27.23 10.02Q27.23 9.77 26.95 9.53L26.95 9.53L26.95 9.53Q26.67 9.30 26.43 9.30L26.43 9.30L26.43 9.30Q25.65 9.30 24.71 10.00L24.71 10.00L24.71 10.00Q23.77 10.71 23.13 11.91L23.13 11.91L23.13 11.91Q22.48 13.10 22.48 14.50L22.48 14.50L22.48 14.50Q22.48 15.15 22.99 15.55L22.99 15.55L22.99 15.55Q23.49 15.96 24.26 15.96L24.26 15.96L24.26 15.96Q24.51 15.96 24.92 15.79L24.92 15.79L24.92 15.79Q25.33 15.62 25.67 15.37L25.67 15.37L25.67 15.37Q26.01 15.12 26.12 14.88L26.12 14.88L26.12 14.88Q26.29 14.53 26.60 14.10L26.60 14.10L26.60 14.10Q26.91 13.66 27.22 13.66L27.22 13.66L27.22 13.66Q27.93 13.66 28.19 13.97L28.19 13.97L28.19 13.97Q28.45 14.28 28.46 14.64L28.46 14.64Z"></path></g><!----><g data-v-423bf9ae="" id="77f3d9cb-cfc0-49b7-bb10-948dec91890e" transform="matrix(1.0885938008626301,0,0,1.0885938008626301,-1.7407831599787897,-0.41758721987874026)" stroke="none" fill="white"><path d="M4.7 40.4c4.9.9 9.9 1.4 14.9 1.4 9 .1 18-1.7 26.4-5.1v16.7l5.9 2.8 2 1V36.7c8.4 3.4 17.4 5.1 26.4 5 5 0 10-.5 14.9-1.4 1.5-.3 2.7-1.5 3-3 .3-1.6-.5-3.1-1.8-3.9-6.6-3.7-12.2-8.9-16.5-15.1-.8-1.2-2-2-3.4-2.2-1.4-.2-2.9.1-4 1-5.6 4-11.8 7.2-18.4 9.3v-6c5.1-2.2 7.5-8.1 5.3-13.2C57.1 2 51.2-.3 46.1 1.8S38.6 9.9 40.8 15c1 2.4 2.9 4.3 5.3 5.3v6c-6.6-2.1-12.8-5.2-18.5-9.3-1.1-.9-2.6-1.2-4-1-1.4.2-2.6 1-3.4 2.2-4.3 6.3-10 11.4-16.7 15.2-1.4.8-2.1 2.4-1.8 3.9.3 1.6 1.5 2.8 3 3.1zM54 95V79l-8-3.7V95c0 2.2 1.8 4 4 4s4-1.8 4-4z"></path><path d="M57 58.5l9.2 4.3c4.8-2.8 6.4-8.9 3.6-13.7-1-1.7-2.5-3.1-4.3-4-1.8-1.2-4.3-.7-5.5 1.1-1.2 1.8-.7 4.3 1.1 5.5.3.2.6.4 1 .5 1 .5 1.5 1.8 1 2.8-.2.4-.6.8-1 1L57 58.5zM34.5 87.2c2.1.7 4.4-.4 5.1-2.5.6-1.8-.1-3.7-1.7-4.7-1-.5-1.5-1.8-1-2.8.2-.4.6-.8 1-1l5.1-2.4-9.2-4.3c-4.8 2.8-6.4 8.9-3.6 13.7.9 1.7 2.5 3.1 4.3 4zM37.9 52.3c2.1-.7 3.3-2.9 2.6-5-.7-2.1-2.9-3.3-5-2.6-.3.1-.7.3-1 .5-5 2.4-7.1 8.3-4.8 13.3 1 2.1 2.7 3.8 4.8 4.8L46 68.7l16 7.6c1 .5 1.5 1.8 1 2.8-.2.4-.6.8-1 1-2.1.7-3.3 2.9-2.6 5 .7 2.1 2.9 3.3 5 2.6.3-.1.7-.3 1-.5 5-2.4 7.1-8.3 4.8-13.3-1-2.1-2.7-3.8-4.8-4.8l-16-7.5-11.5-5.4c-1-.5-1.5-1.8-1-2.8.2-.5.5-.9 1-1.1z"></path></g><!----><g data-v-423bf9ae="" id="426ebd97-0fe3-4fc7-b64b-31be46248903" fill="white" transform="matrix(0.5320969244673546,0,0,0.5320969244673546,125.08075268446422,58.882598394768955)"><path d="M5.28 2.21L5.28 8.37C5.28 9.32 5.04 10.57 3.36 10.57C2.04 10.57 1.41 9.73 1.30 9.00L0.21 9.00C0.34 10.26 1.30 11.59 3.30 11.59C5.54 11.59 6.33 10.04 6.33 8.41L6.33 2.21ZM22.23 2.21L22.23 7.52C22.23 9.67 20.80 10.57 19.33 10.57C17.86 10.57 16.45 9.67 16.45 7.52L16.45 2.21L15.40 2.21L15.40 7.49C15.40 9.95 17.02 11.59 19.33 11.59C21.66 11.59 23.28 9.94 23.28 7.49L23.28 2.21ZM33.05 4.65C33.05 4.03 33.42 3.08 35.52 3.08C37.21 3.08 38.00 3.82 38.11 4.75L39.19 4.75C39.10 3.36 37.98 2.10 35.52 2.10C33.19 2.10 32.03 3.15 32.03 4.66C32.03 7.84 38.37 6.69 38.37 8.96C38.37 10.05 37.39 10.60 35.83 10.60C34.22 10.60 32.91 10.05 32.84 8.71L31.75 8.71C31.89 10.37 33.01 11.59 35.76 11.59C38.04 11.59 39.42 10.64 39.42 8.92C39.42 5.68 33.05 6.80 33.05 4.65ZM54.63 2.21L47.11 2.21L47.11 3.22L50.34 3.22L50.34 11.48L51.39 11.48L51.39 3.22L54.63 3.22ZM77.10 2.21L75.78 2.21L71.85 11.48L73.01 11.48L74.14 8.79L78.74 8.79L79.87 11.48L81.03 11.48ZM74.55 7.83L76.44 3.30L78.33 7.83ZM106.13 2.21L106.13 10.01L100.41 2.21L99.19 2.21L99.19 11.48L100.24 11.48L100.24 3.65L105.97 11.48L107.18 11.48L107.18 2.21ZM123.17 2.21L123.17 7.52C123.17 9.67 121.74 10.57 120.27 10.57C118.80 10.57 117.39 9.67 117.39 7.52L117.39 2.21L116.34 2.21L116.34 7.49C116.34 9.95 117.96 11.59 120.27 11.59C122.60 11.59 124.22 9.94 124.22 7.49L124.22 2.21ZM141.18 2.21L137.91 6.61L134.60 2.21L133.38 2.21L133.38 11.48L134.43 11.48L134.43 3.81L137.91 8.22L141.34 3.81L141.34 11.48L142.39 11.48L142.39 2.21ZM157.50 6.75C158.16 6.45 158.75 5.85 158.75 4.66C158.75 3.54 158.00 2.21 155.82 2.21L151.66 2.21L151.66 11.48L156.06 11.48C158.17 11.48 159.22 10.43 159.22 9.04C159.22 7.66 158.28 7 157.50 6.75ZM152.71 3.21L155.93 3.21C157.21 3.21 157.70 3.98 157.70 4.75C157.70 5.88 156.79 6.36 155.82 6.36L152.71 6.36ZM156.17 10.49L152.71 10.49L152.71 7.31L156.06 7.31C157.53 7.31 158.17 8.09 158.17 8.96C158.17 9.93 157.44 10.49 156.17 10.49ZM174.75 3.22L174.75 2.21L167.93 2.21L167.93 11.48L174.75 11.48L174.75 10.47L168.98 10.47L168.98 7.35L174.13 7.35L174.13 6.33L168.98 6.33L168.98 3.22ZM184.49 7.92L187.71 7.92L189.95 11.48L191.20 11.48L188.76 7.74C189.80 7.50 191.00 6.90 191.00 5.11C191.00 3.35 189.78 2.21 187.88 2.21L183.44 2.21L183.44 11.48L184.49 11.48ZM184.49 3.21L187.75 3.21C189.07 3.21 189.95 3.93 189.95 5.11C189.95 6.55 188.69 6.93 187.70 6.93L184.49 6.93ZM213.95 2.21L212.63 2.21L208.70 11.48L209.86 11.48L210.99 8.79L215.59 8.79L216.72 11.48L217.88 11.48ZM211.40 7.83L213.29 3.30L215.18 7.83ZM231.17 3.70L233.67 11.48L234.86 11.48L237.75 2.21L236.64 2.21L234.26 10.00L231.77 2.21L230.57 2.21L228.07 10.00L225.69 2.21L224.59 2.21L227.47 11.48L228.66 11.48ZM249.70 2.21L248.39 2.21L244.45 11.48L245.62 11.48L246.75 8.79L251.34 8.79L252.48 11.48L253.64 11.48ZM247.16 7.83L249.05 3.30L250.94 7.83ZM264.63 7.81L268.51 2.21L267.23 2.21L264.10 6.72L260.96 2.21L259.69 2.21L263.58 7.81L263.58 11.48L264.63 11.48Z"></path></g></svg>