<svg data-v-423bf9ae="" xmlns="http://www.w3.org/2000/svg" viewBox="0 0 178.45201822197112 60" class="font"><!----><!----><!----><g data-v-423bf9ae="" id="d2664859-9ebe-487e-a333-71674e2331b4" fill="black" transform="matrix(6.19195073253312,0,0,6.19195073253312,-1.6718231386430062,-47.678019936321306)"><path d="M3.58 17.37L3.58 17.37Q1.92 17.37 1.09 16.30L1.09 16.30L1.09 16.30Q0.27 15.22 0.27 13.37L0.27 13.37L0.27 13.37Q0.27 11.84 0.92 10.54L0.92 10.54L0.92 10.54Q1.58 9.24 2.76 8.47L2.76 8.47L2.76 8.47Q3.93 7.70 5.40 7.70L5.40 7.70L5.40 7.70Q6.83 7.70 7.69 8.67L7.69 8.67L7.69 8.67Q8.55 9.65 8.55 11.58L8.55 11.58L8.55 11.58Q8.55 12.95 7.92 14.30L7.92 14.30L7.92 14.30Q7.28 15.65 6.15 16.51L6.15 16.51L6.15 16.51Q5.01 17.37 3.58 17.37L3.58 17.37ZM3.78 16.11L3.78 16.11Q4.47 16.11 5.12 15.34L5.12 15.34L5.12 15.34Q5.78 14.57 6.20 13.37L6.20 13.37L6.20 13.37Q6.61 12.17 6.61 10.92L6.61 10.92L6.61 10.92Q6.61 9.97 6.29 9.54L6.29 9.54L6.29 9.54Q5.98 9.11 5.18 9.11L5.18 9.11L5.18 9.11Q4.30 9.11 3.61 9.88L3.61 9.88L3.61 9.88Q2.93 10.65 2.55 11.80L2.55 11.80L2.55 11.80Q2.17 12.95 2.17 14.03L2.17 14.03L2.17 14.03Q2.17 14.66 2.40 15.13L2.40 15.13L2.40 15.13Q2.63 15.61 3.00 15.86L3.00 15.86L3.00 15.86Q3.37 16.11 3.78 16.11L3.78 16.11ZM19.50 7.73L19.50 7.73Q20.02 7.83 20.18 7.89L20.18 7.89L20.18 7.89Q20.34 7.95 20.40 8.08L20.40 8.08L20.40 8.08Q20.10 9.21 19.63 11.29L19.63 11.29L19.63 11.29Q19.15 13.37 18.98 14.08L18.98 14.08L18.98 14.08Q18.68 15.51 18.41 16.62L18.41 16.62L18.41 16.62Q18.21 17.39 17.79 17.39L17.79 17.39L17.79 17.39Q16.51 17.39 16.51 16.79L16.51 16.79L16.51 16.79Q16.51 17.02 17.23 13.62L17.23 13.62L17.49 12.42L14.70 16.73L14.70 16.73Q14.48 17.01 14.04 17.01L14.04 17.01L14.04 17.01Q13.68 17.01 13.36 16.83L13.36 16.83L13.36 16.83Q13.05 16.65 13.09 16.46L13.09 16.46L12.32 11.94L11.17 16.58L11.17 16.58Q11.07 16.98 10.87 17.12L10.87 17.12L10.87 17.12Q10.67 17.26 10.11 17.26L10.11 17.26L10.11 17.26Q9.67 17.26 9.47 17.12L9.47 17.12L9.47 17.12Q9.27 16.97 9.27 16.62L9.27 16.62L9.27 16.62Q9.27 16.46 9.31 16.32L9.31 16.32L11.23 8.75L11.23 8.75Q11.38 8.13 11.56 7.93L11.56 7.93L11.56 7.93Q11.73 7.73 12.19 7.73L12.19 7.73L12.19 7.73Q12.57 7.73 12.87 7.81L12.87 7.81L12.87 7.81Q13.16 7.90 13.17 8.06L13.17 8.06L13.17 8.09L14.29 15.05L14.29 15.05Q14.90 14.08 16.28 11.86L16.28 11.86L16.28 11.86Q17.65 9.63 18.44 8.39L18.44 8.39L18.44 8.39Q18.58 8.04 18.75 7.93L18.75 7.93L18.75 7.93Q18.93 7.83 19.16 7.78L19.16 7.78L19.16 7.78Q19.39 7.74 19.50 7.73L19.50 7.73ZM16.51 16.79L16.51 16.79ZM28.46 14.64L28.46 14.64Q28.25 15.27 27.63 15.91L27.63 15.91L27.63 15.91Q27.01 16.55 26.06 16.96L26.06 16.96L26.06 16.96Q25.12 17.37 24.00 17.37L24.00 17.37L24.00 17.37Q22.29 17.37 21.49 16.54L21.49 16.54L21.49 16.54Q20.69 15.71 20.69 14.41L20.69 14.41L20.69 14.41Q20.69 12.56 21.52 11.05L21.52 11.05L21.52 11.05Q22.34 9.55 23.74 8.69L23.74 8.69L23.74 8.69Q25.14 7.83 26.77 7.83L26.77 7.83L26.77 7.83Q27.41 7.83 27.94 8.12L27.94 8.12L27.94 8.12Q28.48 8.41 28.78 8.97L28.78 8.97L28.78 8.97Q29.09 9.52 29.09 10.26L29.09 10.26L29.09 10.26Q29.09 10.68 28.78 10.98L28.78 10.98L28.78 10.98Q28.46 11.27 27.93 11.27L27.93 11.27L27.93 11.27Q27.51 11.27 27.36 11.05L27.36 11.05L27.36 11.05Q27.22 10.82 27.22 10.47L27.22 10.47L27.23 10.02L27.23 10.02Q27.23 9.77 26.95 9.53L26.95 9.53L26.95 9.53Q26.67 9.30 26.43 9.30L26.43 9.30L26.43 9.30Q25.65 9.30 24.71 10.00L24.71 10.00L24.71 10.00Q23.77 10.71 23.13 11.91L23.13 11.91L23.13 11.91Q22.48 13.10 22.48 14.50L22.48 14.50L22.48 14.50Q22.48 15.15 22.99 15.55L22.99 15.55L22.99 15.55Q23.49 15.96 24.26 15.96L24.26 15.96L24.26 15.96Q24.51 15.96 24.92 15.79L24.92 15.79L24.92 15.79Q25.33 15.62 25.67 15.37L25.67 15.37L25.67 15.37Q26.01 15.12 26.12 14.88L26.12 14.88L26.12 14.88Q26.29 14.53 26.60 14.10L26.60 14.10L26.60 14.10Q26.91 13.66 27.22 13.66L27.22 13.66L27.22 13.66Q27.93 13.66 28.19 13.97L28.19 13.97L28.19 13.97Q28.45 14.28 28.46 14.64L28.46 14.64Z"></path></g><!----><!----></svg>